<svg width="1024" height="1024" viewBox="0 0 1024 1024" fill="none" xmlns="http://www.w3.org/2000/svg" role="img" aria-label="Murmur app icon">
<defs>
  <linearGradient id="ink" x1="120" y1="80" x2="940" y2="980" gradientUnits="userSpaceOnUse"><stop stop-color="#202A42"></stop><stop offset="0.5" stop-color="#141A2B"></stop><stop offset="1" stop-color="#0A0E18"></stop></linearGradient>
  <radialGradient id="topglow" cx="0.5" cy="0.30" r="0.72"><stop offset="0" stop-color="#33457A" stop-opacity="0.55"></stop><stop offset="1" stop-color="#33457A" stop-opacity="0"></stop></radialGradient>
  <radialGradient id="cglow" cx="0.5" cy="0.5" r="0.5"><stop offset="0" stop-color="#7FB0FF" stop-opacity="0.8"></stop><stop offset="0.5" stop-color="#3F7EEA" stop-opacity="0.22"></stop><stop offset="1" stop-color="#2E6FE0" stop-opacity="0"></stop></radialGradient>
  <linearGradient id="bar" x1="200" y1="320" x2="820" y2="700" gradientUnits="userSpaceOnUse"><stop stop-color="#9CC0FF"></stop><stop offset="0.5" stop-color="#4582EE"></stop><stop offset="1" stop-color="#2059C0"></stop></linearGradient>
  <radialGradient id="dotfill" cx="0.42" cy="0.36" r="0.7"><stop offset="0" stop-color="#CFE0FF"></stop><stop offset="0.45" stop-color="#5C92F2"></stop><stop offset="1" stop-color="#2E6FE0"></stop></radialGradient>
</defs>
<rect width="1024" height="1024" rx="229" fill="url(#ink)"></rect>
<rect width="1024" height="1024" rx="229" fill="url(#topglow)"></rect>
<circle cx="512" cy="512" r="320" fill="url(#cglow)"></circle>
<path d="M190.0 512.0 L192.6 511.7 L195.2 510.9 L197.7 509.7 L200.3 508.0 L202.9 506.0 L205.5 503.5 L208.1 500.7 L210.7 497.5 L213.2 494.0 L215.8 490.2 L218.4 486.2 L221.0 482.0 L223.6 477.5 L226.1 473.0 L228.7 468.3 L231.3 463.5 L233.9 458.8 L236.5 454.0 L239.1 449.2 L241.6 444.6 L244.2 440.1 L246.8 435.7 L249.4 431.6 L252.0 427.7 L254.5 424.0 L257.1 420.7 L259.7 417.8 L262.3 415.2 L264.9 413.0 L267.5 411.3 L270.0 410.0 L272.6 409.3 L275.2 409.0 L277.8 409.3 L280.4 410.2 L282.9 411.6 L285.5 413.5 L288.1 416.1 L290.7 419.2 L293.3 422.9 L295.9 427.2 L298.4 432.1 L301.0 437.5 L303.6 443.5 L306.2 450.0 L308.8 457.0 L311.3 464.5 L313.9 472.4 L316.5 480.8 L319.1 489.6 L321.7 498.8 L324.3 508.3 L326.8 518.1 L329.4 528.1 L332.0 538.4 L334.6 548.8 L337.2 559.3 L339.7 569.9 L342.3 580.5 L344.9 591.1 L347.5 601.6 L350.1 612.0 L352.7 622.2 L355.2 632.1 L357.8 641.8 L360.4 651.2 L363.0 660.1 L365.6 668.7 L368.1 676.7 L370.7 684.3 L373.3 691.3 L375.9 697.7 L378.5 703.5 L381.1 708.6 L383.6 713.1 L386.2 716.8 L388.8 719.7 L391.4 721.9 L394.0 723.3 L396.5 723.9 L399.1 723.6 L401.7 722.6 L404.3 720.7 L406.9 718.0 L409.5 714.5 L412.0 710.1 L414.6 705.0 L417.2 699.0 L419.8 692.3 L422.4 684.9 L424.9 676.7 L427.5 667.9 L430.1 658.4 L432.7 648.2 L435.3 637.5 L437.9 626.2 L440.4 614.5 L443.0 602.3 L445.6 589.7 L448.2 576.7 L450.8 563.5 L453.3 550.0 L455.9 536.4 L458.5 522.6 L461.1 508.7 L463.7 494.8 L466.3 481.0 L468.8 467.2 L471.4 453.7 L474.0 440.3 L476.6 427.2 L479.2 414.5 L481.7 402.1 L484.3 390.1 L486.9 378.6 L489.5 367.7 L492.1 357.3 L494.7 347.5 L497.2 338.4 L499.8 330.0 L502.4 322.3 L505.0 315.3 L507.6 309.2 L510.1 303.8 L512.7 299.2 L515.3 295.5 L517.9 292.6 L520.5 290.5 L523.1 289.4 L525.6 289.0 L528.2 289.5 L530.8 290.9 L533.4 293.1 L536.0 296.1 L538.5 299.9 L541.1 304.5 L543.7 309.8 L546.3 315.8 L548.9 322.5 L551.5 329.9 L554.0 337.9 L556.6 346.4 L559.2 355.5 L561.8 365.1 L564.4 375.1 L566.9 385.4 L569.5 396.1 L572.1 407.1 L574.7 418.4 L577.3 429.8 L579.9 441.3 L582.4 453.0 L585.0 464.6 L587.6 476.2 L590.2 487.8 L592.8 499.2 L595.3 510.4 L597.9 521.4 L600.5 532.2 L603.1 542.6 L605.7 552.6 L608.3 562.3 L610.8 571.5 L613.4 580.3 L616.0 588.6 L618.6 596.3 L621.2 603.5 L623.7 610.1 L626.3 616.1 L628.9 621.5 L631.5 626.3 L634.1 630.5 L636.7 634.0 L639.2 636.9 L641.8 639.1 L644.4 640.7 L647.0 641.7 L649.6 642.1 L652.1 641.9 L654.7 641.1 L657.3 639.8 L659.9 637.9 L662.5 635.5 L665.1 632.7 L667.6 629.3 L670.2 625.6 L672.8 621.5 L675.4 617.0 L678.0 612.3 L680.5 607.2 L683.1 602.0 L685.7 596.5 L688.3 590.9 L690.9 585.2 L693.5 579.5 L696.0 573.7 L698.6 567.9 L701.2 562.2 L703.8 556.6 L706.4 551.1 L708.9 545.8 L711.5 540.7 L714.1 535.8 L716.7 531.2 L719.3 527.0 L721.9 523.0 L724.4 519.4 L727.0 516.2 L729.6 513.3 L732.2 510.9 L734.8 508.9 L737.3 507.3 L739.9 506.2 L742.5 505.6 L745.1 505.4 L747.7 505.7 L750.3 506.5 L752.8 507.7 L755.4 509.5 L758.0 512.0" stroke="url(#bar)" stroke-width="50" stroke-linecap="round" stroke-linejoin="round" fill="none"></path>
<circle cx="810" cy="512" r="150" fill="url(#cglow)"></circle>
<circle cx="810" cy="512" r="76" fill="url(#dotfill)"></circle>
<circle cx="788" cy="490" r="20" fill="#EAF2FF" opacity="0.55"></circle>
</svg>